<?xml version="1.0" encoding="UTF-8"?>
<svg version="1.1" xmlns="http://www.w3.org/2000/svg" width="512" height="512">
<path d="M0 0 C7.1047453 7.72511807 12.36807197 17.6596861 13.87890625 28.04296875 C15.56693359 28.18992187 15.56693359 28.18992187 17.2890625 28.33984375 C45.04549488 30.95854726 72.36388132 41.31275984 90.87890625 63.04296875 C108.14728472 84.73271948 116.33546685 108.72597169 116.25390625 136.48046875 C116.25309052 137.53019867 116.25309052 137.53019867 116.2522583 138.60113525 C116.20903138 150.75689181 115.11771385 162.29304803 111.87890625 174.04296875 C111.55744629 175.21255127 111.55744629 175.21255127 111.22949219 176.40576172 C108.03687394 187.59851434 103.41805161 197.83413358 97.87890625 208.04296875 C97.55664062 208.65124512 97.234375 209.25952148 96.90234375 209.88623047 C89.44027843 223.93447844 79.78306812 235.57365215 68.87890625 247.04296875 C68.26015625 247.72617187 67.64140625 248.409375 67.00390625 249.11328125 C43.41287849 274.28406534 8.4903986 289.76759078 -25.32705688 293.96377563 C-38.63669571 295.63927317 -51.65400808 298.27805744 -64.74609375 301.16796875 C-66.98127979 301.65569301 -69.21646863 302.14340442 -71.45166016 302.63110352 C-84.84333582 305.57036351 -98.19538751 308.65322457 -111.49609375 311.98046875 C-112.57180634 312.24890594 -112.57180634 312.24890594 -113.66925049 312.52276611 C-118.16589353 313.65088254 -122.64428541 314.83811888 -127.12109375 316.04296875 C-128.29236816 316.33107422 -129.46364258 316.61917969 -130.67041016 316.91601562 C-138.44772522 318.99175961 -143.25981537 321.80637153 -148.74609375 327.66796875 C-149.42542969 328.32925781 -150.10476562 328.99054688 -150.8046875 329.671875 C-154.29124793 333.25471126 -156.0753701 335.68381508 -157.14306641 340.58691406 C-159.21962702 347.94124853 -164.77101487 352.54238005 -170.10546875 357.67578125 C-171.20703219 358.76170724 -172.30695977 359.84929488 -173.40533447 360.93844604 C-176.28754123 363.78844768 -179.18967409 366.61723543 -182.09716797 369.44140625 C-185.61163329 372.86203641 -189.10354898 376.30564877 -192.5972023 379.74751091 C-195.31883757 382.42840489 -198.0439558 385.10533224 -200.78167725 387.76980591 C-205.62479305 392.4952778 -210.35160978 397.24791027 -214.71774292 402.42327881 C-217.57528343 405.72133481 -220.87671891 408.59724571 -224.08203125 411.55078125 C-226.35309637 413.88594027 -226.35309637 413.88594027 -226.5234375 416.91796875 C-227.39985928 421.50056629 -230.04272803 423.73491991 -233.30859375 426.91796875 C-233.87384766 427.5109375 -234.43910156 428.10390625 -235.02148438 428.71484375 C-235.58416016 429.27429688 -236.14683594 429.83375 -236.7265625 430.41015625 C-237.23340576 430.91659668 -237.74024902 431.42303711 -238.26245117 431.94482422 C-241.25965754 433.71566807 -242.66757056 433.72769063 -246.12109375 433.04296875 C-249.31264881 430.72635237 -251.9857204 427.94638119 -254.73046875 425.125 C-255.53848938 424.31560471 -256.34651001 423.50620941 -257.17901611 422.67228699 C-258.8838073 420.95843697 -260.58130526 419.2373058 -262.27197266 417.50952148 C-264.85963815 414.86716646 -267.47043012 412.24953458 -270.0859375 409.63476562 C-271.73970236 407.9662511 -273.39209328 406.29637342 -275.04296875 404.625 C-275.82315369 403.84147659 -276.60333862 403.05795319 -277.40716553 402.25068665 C-278.48904144 401.14010139 -278.48904144 401.14010139 -279.59277344 400.00708008 C-280.5449173 399.03778313 -280.5449173 399.03778313 -281.51629639 398.04890442 C-283.32603174 395.78680406 -284.29770199 393.81689248 -285.12109375 391.04296875 C-283.30294387 386.78252798 -280.07926203 383.57184047 -276.87109375 380.29296875 C-276.19240234 379.55240234 -276.19240234 379.55240234 -275.5 378.796875 C-272.92393062 376.16307858 -271.58254212 375.07932968 -267.85971069 374.78598022 C-262.8259005 373.78556248 -260.77077724 371.46081709 -257.31884766 367.82666016 C-256.67879288 367.17784378 -256.0387381 366.5290274 -255.37928772 365.86054993 C-253.99542603 364.45390862 -252.61853793 363.04037973 -251.24794388 361.62080765 C-249.07476148 359.37082741 -246.88318688 357.14032303 -244.68588257 354.91390991 C-239.23219306 349.380113 -233.81149337 343.81435647 -228.38970947 338.24932861 C-223.80645791 333.54744919 -219.21096155 328.8582024 -214.59861374 324.18485641 C-212.44518902 321.99269422 -210.31072215 319.78318068 -208.17642212 317.57241821 C-206.84589367 316.22007896 -205.51450675 314.86858361 -204.18212891 313.51806641 C-203.30741188 312.59685249 -203.30741188 312.59685249 -202.4150238 311.6570282 C-198.61552414 307.85468918 -195.26989285 306.03257092 -190.0755167 304.61572647 C-182.77837732 302.47724722 -176.36817592 293.98963086 -172.12109375 288.04296875 C-169.19612951 282.60928998 -168.10691903 276.64076856 -166.88623047 270.64208984 C-165.97819583 266.37079228 -164.93291774 262.14243779 -163.875 257.90625 C-152.46722849 211.99573378 -152.46722849 211.99573378 -145.06933594 165.32446289 C-140.83767366 129.28899562 -121.39281236 98.15320673 -96.12109375 73.04296875 C-95.38246094 72.30433594 -94.64382812 71.56570312 -93.8828125 70.8046875 C-91.96223958 68.88411458 -90.04166667 66.96354167 -88.12109375 65.04296875 C-88.38664063 64.43453125 -88.6521875 63.82609375 -88.92578125 63.19921875 C-94.92311265 48.31533061 -95.73862289 32.98070651 -89.99609375 17.85546875 C-83.3342614 3.22670824 -72.89860604 -6.82335149 -58.12109375 -12.95703125 C-55.40173484 -13.90642147 -52.98828835 -14.43999616 -50.12109375 -14.95703125 C-49.45078125 -15.07820313 -48.78046875 -15.199375 -48.08984375 -15.32421875 C-30.26348094 -17.97233786 -13.18976124 -12.07062999 0 0 Z M-72.12109375 7.04296875 C-68.68676515 14.94872518 -60.51031339 18.00198727 -52.953125 21.0625 C-42.77039361 24.58783183 -32.16787233 23.63781075 -22.12109375 20.04296875 C-16.19025947 17.13192456 -11.03219821 13.43711484 -6.12109375 9.04296875 C-12.35254303 0.85238959 -19.26469413 -3.22550965 -29.12109375 -5.95703125 C-29.92546875 -6.18390625 -30.72984375 -6.41078125 -31.55859375 -6.64453125 C-47.43181497 -8.58028994 -60.35592964 -3.48375703 -72.12109375 7.04296875 Z M-78.12109375 16.04296875 C-84.72510462 27.88985848 -86.88424179 38.85700029 -83.26171875 52.2109375 C-81.20166817 58.25918442 -81.20166817 58.25918442 -77.12109375 63.04296875 C-76.25484375 62.19734375 -75.38859375 61.35171875 -74.49609375 60.48046875 C-62.19861075 49.95762252 -47.91669798 47.01282065 -32.12109375 48.04296875 C-20.07379731 49.78704208 -9.42802557 55.32369 -0.12109375 63.04296875 C0.69565421 61.29494729 1.50714076 59.54446686 2.31640625 57.79296875 C2.76886719 56.8184375 3.22132813 55.84390625 3.6875 54.83984375 C8.10355418 44.47297557 6.82935193 31.68156134 2.94921875 21.36328125 C1.86343519 18.85165188 1.86343519 18.85165188 -0.12109375 16.04296875 C-2.96757058 17.36008851 -5.21487492 18.85556318 -7.62109375 20.85546875 C-17.7957519 28.57612771 -31.40148967 32.29505478 -44.12109375 31.04296875 C-57.19339169 29.17325306 -67.96338146 24.46789483 -78.12109375 16.04296875 Z M14.87890625 37.04296875 C14.54890625 41.00296875 14.21890625 44.96296875 13.87890625 49.04296875 C15.3278125 49.34589844 16.77671875 49.64882812 18.26953125 49.9609375 C36.66628814 53.90378161 53.27202881 59.15684346 67.13671875 72.5390625 C68.74764635 74.26078312 68.74764635 74.26078312 70.87890625 74.04296875 C71.14574219 74.63722656 71.41257812 75.23148438 71.6875 75.84375 C72.90005285 78.08200329 74.14625999 79.44381018 75.94140625 81.23046875 C93.4916686 100.91026084 96.09366699 127.88419946 94.87890625 153.04296875 C92.49261516 183.88731082 76.66141373 211.00091536 55.87890625 233.04296875 C55.20730469 233.77902344 54.53570312 234.51507813 53.84375 235.2734375 C32.08350998 258.2538779 -0.16702051 271.89025417 -31.59375 273.28515625 C-56.71413158 273.93013144 -80.66261626 266.37133538 -99.12109375 249.04296875 C-116.49428993 232.09489157 -124.96702838 209.26242684 -125.36303711 185.19555664 C-125.48925564 146.57651212 -110.12182118 114.51495871 -83.3359375 87.203125 C-80.94316774 84.80362452 -78.53983041 82.41625941 -76.12109375 80.04296875 C-78.10109375 77.73296875 -80.08109375 75.42296875 -82.12109375 73.04296875 C-83.17296875 73.95046875 -84.22484375 74.85796875 -85.30859375 75.79296875 C-87.37666849 77.57507724 -89.43569459 79.27891938 -91.62109375 80.91796875 C-115.98737506 101.62930786 -133.90939322 138.61708885 -137.12109375 170.04296875 C-137.25386719 171.29722656 -137.38664063 172.55148438 -137.5234375 173.84375 C-140.09110029 202.36133991 -133.00613365 229.5499928 -115.12109375 252.04296875 C-114.35796875 253.07421875 -113.59484375 254.10546875 -112.80859375 255.16796875 C-101.38431231 267.38929309 -86.86886463 275.76061433 -71.12109375 281.04296875 C-69.90808594 281.45804688 -68.69507813 281.873125 -67.4453125 282.30078125 C-47.81373582 288.26314999 -24.63316059 286.79125859 -5.12109375 281.04296875 C-4.47221191 280.8610498 -3.82333008 280.67913086 -3.15478516 280.49169922 C19.91732676 273.9273226 40.32296082 261.22467188 57.87890625 245.04296875 C58.62382324 244.36379395 58.62382324 244.36379395 59.38378906 243.67089844 C72.93641819 231.17500452 83.52290951 216.42155587 91.87890625 200.04296875 C92.35384521 199.13562988 92.35384521 199.13562988 92.83837891 198.20996094 C108.02599478 168.97677445 112.52517636 133.97352271 102.75390625 102.29296875 C93.28378079 76.5319727 76.46409682 57.65309848 51.75390625 45.35546875 C40.14567557 40.34166487 27.47894413 37.53387932 14.87890625 37.04296875 Z M-72.12109375 70.04296875 C-69.6403669 76.00699598 -64.13360762 78.61764502 -58.50390625 81.28125 C-45.4906509 86.46769235 -31.77226358 85.94011571 -18.83203125 80.71484375 C-13.40561539 77.93581676 -9.58735399 75.06306979 -6.12109375 70.04296875 C-14.99978646 60.97650913 -25.95802579 56.00638422 -38.62109375 55.73046875 C-51.83259873 55.86866441 -62.96043234 60.44469612 -72.12109375 70.04296875 Z M11.87890625 58.04296875 C11.27755859 59.27660156 11.27755859 59.27660156 10.6640625 60.53515625 C6.64326011 68.43088157 2.18499243 74.70828354 -4.12109375 81.04296875 C0.86294793 87.07628237 6.29805928 92.56138585 11.87890625 98.04296875 C15.3452046 96.55643369 17.56912661 94.58574524 20.20703125 91.91015625 C21.00625 91.10449219 21.80546875 90.29882812 22.62890625 89.46875 C23.45390625 88.62699219 24.27890625 87.78523438 25.12890625 86.91796875 C25.969375 86.06847656 26.80984375 85.21898437 27.67578125 84.34375 C29.74806308 82.24791952 31.81553018 80.14756162 33.87890625 78.04296875 C31.64969733 73.00800723 27.84583387 69.64169624 24.00390625 65.79296875 C23.28332031 65.04789062 22.56273437 64.3028125 21.8203125 63.53515625 C21.12035156 62.83132812 20.42039062 62.1275 19.69921875 61.40234375 C19.06258301 60.75749023 18.42594727 60.11263672 17.77001953 59.44824219 C15.7364838 57.64533802 15.7364838 57.64533802 11.87890625 58.04296875 Z M33.87890625 63.04296875 C35.85890625 65.35296875 37.83890625 67.66296875 39.87890625 70.04296875 C41.19890625 68.72296875 42.51890625 67.40296875 43.87890625 66.04296875 C39.06680724 63.75251861 39.06680724 63.75251861 33.87890625 63.04296875 Z M49.12890625 73.29296875 C47.67003424 74.93440579 47.67003424 74.93440579 48.03930664 76.86816406 C49.16569751 79.78584068 50.84932595 81.3851493 53.0625 83.58984375 C54.3299707 84.85634766 54.3299707 84.85634766 55.62304688 86.1484375 C56.51185547 87.02113281 57.40066406 87.89382812 58.31640625 88.79296875 C59.20134766 89.68113281 60.08628906 90.56929687 60.99804688 91.484375 C64.82373519 96.03340953 64.82373519 96.03340953 69.87890625 98.04296875 C71.66359891 96.33044248 71.66359891 96.33044248 72.87890625 94.04296875 C72.1397929 85.92991062 61.47946282 78.56963833 55.82421875 73.44140625 C53.24321876 71.58598859 51.75386116 71.41800096 49.12890625 73.29296875 Z M37.81591797 85.87890625 C36.98850098 86.71679688 36.16108398 87.5546875 35.30859375 88.41796875 C34.41269531 89.3203125 33.51679688 90.22265625 32.59375 91.15234375 C31.64702726 92.11577915 30.70041409 93.07932223 29.75390625 94.04296875 C28.79993823 95.00696492 27.84551673 95.97051256 26.890625 96.93359375 C24.5488745 99.2989983 22.21190122 101.66893327 19.87890625 104.04296875 C21.36544131 107.5092671 23.33612976 109.73318911 26.01171875 112.37109375 C26.81738281 113.1703125 27.62304688 113.96953125 28.453125 114.79296875 C29.29488281 115.61796875 30.13664062 116.44296875 31.00390625 117.29296875 C32.27814453 118.55367187 32.27814453 118.55367187 33.578125 119.83984375 C35.67395548 121.91212558 37.77431338 123.97959268 39.87890625 126.04296875 C43.3452046 124.55643369 45.56912661 122.58574524 48.20703125 119.91015625 C49.00625 119.10449219 49.80546875 118.29882812 50.62890625 117.46875 C51.45390625 116.62699219 52.27890625 115.78523438 53.12890625 114.91796875 C53.969375 114.06847656 54.80984375 113.21898437 55.67578125 112.34375 C57.74806308 110.24791952 59.81553018 108.14756162 61.87890625 106.04296875 C60.39661174 102.60691694 58.44938885 100.35595284 55.81640625 97.71484375 C55.01976562 96.915625 54.223125 96.11640625 53.40234375 95.29296875 C52.56960938 94.46796875 51.736875 93.64296875 50.87890625 92.79296875 C50.04617188 91.9525 49.2134375 91.11203125 48.35546875 90.24609375 C47.55882812 89.45203125 46.7621875 88.65796875 45.94140625 87.83984375 C45.21050781 87.11120117 44.47960937 86.38255859 43.7265625 85.63183594 C41.04188373 83.32318247 40.45052525 83.53426166 37.81591797 85.87890625 Z M-79.68359375 95.48046875 C-82.94144993 98.90539448 -86.03723755 102.4614297 -89.12109375 106.04296875 C-85.54104882 114.28275469 -77.48685252 120.86142808 -71.12109375 127.04296875 C-70.46753906 126.38941406 -69.81398438 125.73585937 -69.140625 125.0625 C-62.80078125 118.72265625 -56.4609375 112.3828125 -50.12109375 106.04296875 C-51.54464875 102.80020148 -53.2758044 100.64203571 -55.78125 98.15234375 C-56.49216797 97.44335938 -57.20308594 96.734375 -57.93554688 96.00390625 C-59.04833008 94.90949219 -59.04833008 94.90949219 -60.18359375 93.79296875 C-60.92931641 93.04789062 -61.67503906 92.3028125 -62.44335938 91.53515625 C-70.44323439 83.60067531 -72.09161276 88.2588283 -79.68359375 95.48046875 Z M-29.89477539 97.39916992 C-32.01274491 99.57808317 -34.08336801 101.78863437 -36.12109375 104.04296875 C-34.63455869 107.5092671 -32.66387024 109.73318911 -29.98828125 112.37109375 C-29.18261719 113.1703125 -28.37695312 113.96953125 -27.546875 114.79296875 C-26.70511719 115.61796875 -25.86335938 116.44296875 -24.99609375 117.29296875 C-23.72185547 118.55367187 -23.72185547 118.55367187 -22.421875 119.83984375 C-20.32604452 121.91212558 -18.22568662 123.97959268 -16.12109375 126.04296875 C-12.6547954 124.55643369 -10.43087339 122.58574524 -7.79296875 119.91015625 C-6.99375 119.10449219 -6.19453125 118.29882812 -5.37109375 117.46875 C-4.54609375 116.62699219 -3.72109375 115.78523438 -2.87109375 114.91796875 C-2.030625 114.06847656 -1.19015625 113.21898437 -0.32421875 112.34375 C1.74806308 110.24791952 3.81553018 108.14756162 5.87890625 106.04296875 C4.49205402 102.92341155 2.87701134 100.78441076 0.47265625 98.37109375 C-0.18863281 97.70722656 -0.84992188 97.04335937 -1.53125 96.359375 C-2.22089844 95.67746094 -2.91054688 94.99554688 -3.62109375 94.29296875 C-4.31074219 93.59558594 -5.00039063 92.89820313 -5.7109375 92.1796875 C-6.37222656 91.52097656 -7.03351563 90.86226563 -7.71484375 90.18359375 C-8.32005859 89.58063477 -8.92527344 88.97767578 -9.54882812 88.35644531 C-15.04205837 83.7673803 -25.83728808 93.41265154 -29.89477539 97.39916992 Z M-47.12109375 94.04296875 C-46.13109375 95.36296875 -45.14109375 96.68296875 -44.12109375 98.04296875 C-40.99911897 96.73401155 -40.99911897 96.73401155 -39.12109375 94.04296875 C-41.76109375 94.04296875 -44.40109375 94.04296875 -47.12109375 94.04296875 Z M77.87890625 101.04296875 C76.85283285 102.35634271 75.851633 103.6896098 74.87890625 105.04296875 C77.18890625 107.02296875 79.49890625 109.00296875 81.87890625 111.04296875 C80.88890625 107.74296875 79.89890625 104.44296875 78.87890625 101.04296875 C78.54890625 101.04296875 78.21890625 101.04296875 77.87890625 101.04296875 Z M-46.18408203 113.87890625 C-47.01149902 114.71679688 -47.83891602 115.5546875 -48.69140625 116.41796875 C-49.58730469 117.3203125 -50.48320312 118.22265625 -51.40625 119.15234375 C-52.35297274 120.11577915 -53.29958591 121.07932223 -54.24609375 122.04296875 C-55.20006177 123.00696492 -56.15448327 123.97051256 -57.109375 124.93359375 C-59.4511255 127.2989983 -61.78809878 129.66893327 -64.12109375 132.04296875 C-62.63455869 135.5092671 -60.66387024 137.73318911 -57.98828125 140.37109375 C-57.18261719 141.1703125 -56.37695312 141.96953125 -55.546875 142.79296875 C-54.70511719 143.61796875 -53.86335937 144.44296875 -52.99609375 145.29296875 C-51.72185547 146.55367187 -51.72185547 146.55367187 -50.421875 147.83984375 C-48.32604452 149.91212558 -46.22568662 151.97959268 -44.12109375 154.04296875 C-40.6547954 152.55643369 -38.43087339 150.58574524 -35.79296875 147.91015625 C-34.99375 147.10449219 -34.19453125 146.29882812 -33.37109375 145.46875 C-32.54609375 144.62699219 -31.72109375 143.78523438 -30.87109375 142.91796875 C-30.030625 142.06847656 -29.19015625 141.21898437 -28.32421875 140.34375 C-26.25193692 138.24791952 -24.18446982 136.14756162 -22.12109375 134.04296875 C-23.60338826 130.60691694 -25.55061115 128.35595284 -28.18359375 125.71484375 C-28.98023438 124.915625 -29.776875 124.11640625 -30.59765625 123.29296875 C-31.43039062 122.46796875 -32.263125 121.64296875 -33.12109375 120.79296875 C-33.95382812 119.9525 -34.7865625 119.11203125 -35.64453125 118.24609375 C-36.44117188 117.45203125 -37.2378125 116.65796875 -38.05859375 115.83984375 C-38.78949219 115.11120117 -39.52039063 114.38255859 -40.2734375 113.63183594 C-42.95811627 111.32318247 -43.54947475 111.53426166 -46.18408203 113.87890625 Z M9.81591797 113.87890625 C8.98850098 114.71679688 8.16108398 115.5546875 7.30859375 116.41796875 C6.41269531 117.3203125 5.51679688 118.22265625 4.59375 119.15234375 C3.64702726 120.11577915 2.70041409 121.07932223 1.75390625 122.04296875 C0.79993823 123.00696492 -0.15448327 123.97051256 -1.109375 124.93359375 C-3.4511255 127.2989983 -5.78809878 129.66893327 -8.12109375 132.04296875 C-6.63455869 135.5092671 -4.66387024 137.73318911 -1.98828125 140.37109375 C-1.18261719 141.1703125 -0.37695312 141.96953125 0.453125 142.79296875 C1.29488281 143.61796875 2.13664062 144.44296875 3.00390625 145.29296875 C4.27814453 146.55367187 4.27814453 146.55367187 5.578125 147.83984375 C7.67395548 149.91212558 9.77431338 151.97959268 11.87890625 154.04296875 C15.3452046 152.55643369 17.56912661 150.58574524 20.20703125 147.91015625 C21.00625 147.10449219 21.80546875 146.29882812 22.62890625 145.46875 C23.45390625 144.62699219 24.27890625 143.78523438 25.12890625 142.91796875 C25.969375 142.06847656 26.80984375 141.21898437 27.67578125 140.34375 C29.74806308 138.24791952 31.81553018 136.14756162 33.87890625 134.04296875 C32.39661174 130.60691694 30.44938885 128.35595284 27.81640625 125.71484375 C27.01976562 124.915625 26.223125 124.11640625 25.40234375 123.29296875 C24.56960938 122.46796875 23.736875 121.64296875 22.87890625 120.79296875 C22.04617188 119.9525 21.2134375 119.11203125 20.35546875 118.24609375 C19.55882812 117.45203125 18.7621875 116.65796875 17.94140625 115.83984375 C17.21050781 115.11120117 16.47960937 114.38255859 15.7265625 113.63183594 C13.04188373 111.32318247 12.45052525 111.53426166 9.81591797 113.87890625 Z M65.81591797 113.87890625 C64.98850098 114.71679688 64.16108398 115.5546875 63.30859375 116.41796875 C62.41269531 117.3203125 61.51679688 118.22265625 60.59375 119.15234375 C59.64702726 120.11577915 58.70041409 121.07932223 57.75390625 122.04296875 C56.79993823 123.00696492 55.84551673 123.97051256 54.890625 124.93359375 C52.5488745 127.2989983 50.21190122 129.66893327 47.87890625 132.04296875 C49.4049404 135.25927016 50.97691396 137.33066174 53.56640625 139.79296875 C57.00617484 143.13285296 60.16480375 146.60352085 63.23828125 150.28125 C64.97280395 152.143797 66.82986841 153.5420459 68.87890625 155.04296875 C71.91174463 152.24314987 74.89830768 149.39825687 77.87890625 146.54296875 C78.73742187 145.75148437 79.5959375 144.96 80.48046875 144.14453125 C85.63293271 139.38253438 85.63293271 139.38253438 87.96484375 133.01171875 C87.24893267 127.34668327 82.46900126 123.72119997 78.50390625 120.04296875 C77.3128125 118.88087891 77.3128125 118.88087891 76.09765625 117.6953125 C71.43507729 112.16605293 71.43507729 112.16605293 65.81591797 113.87890625 Z M-96.12109375 115.04296875 C-105.64802822 128.22557682 -105.64802822 128.22557682 -110.0546875 143.015625 C-108.65018489 146.06556999 -106.46604085 147.97694369 -104.05859375 150.29296875 C-103.13949219 151.185 -102.22039062 152.07703125 -101.2734375 152.99609375 C-100.20802734 154.00929688 -100.20802734 154.00929688 -99.12109375 155.04296875 C-93.86934449 150.65854349 -88.98886902 146.03454782 -84.18359375 141.16796875 C-83.49974609 140.47960937 -82.81589844 139.79125 -82.11132812 139.08203125 C-80.44557911 137.40463364 -78.78223155 135.72493084 -77.12109375 134.04296875 C-81.03638334 129.35811921 -85.10069357 124.90599358 -89.43359375 120.60546875 C-89.97048828 120.06470703 -90.50738281 119.52394531 -91.06054688 118.96679688 C-93.22842201 116.27097966 -93.22842201 116.27097966 -96.12109375 115.04296875 Z M-72.12109375 140.04296875 C-73.48521655 141.39234212 -73.48521655 141.39234212 -74.93359375 143.23046875 C-80.27527399 149.53819754 -86.24162158 155.24306838 -92.12109375 161.04296875 C-87.73666849 166.29471801 -83.11267282 171.17519348 -78.24609375 175.98046875 C-77.55773437 176.66431641 -76.869375 177.34816406 -76.16015625 178.05273438 C-74.48275864 179.71848339 -72.80305584 181.38183095 -71.12109375 183.04296875 C-65.86934449 178.65854349 -60.98886902 174.03454782 -56.18359375 169.16796875 C-55.49974609 168.47960937 -54.81589844 167.79125 -54.11132812 167.08203125 C-52.44557911 165.40463364 -50.78223155 163.72493084 -49.12109375 162.04296875 C-53.48931223 156.82688178 -58.0635025 151.91778258 -62.87109375 147.10546875 C-63.54269531 146.42162109 -64.21429688 145.73777344 -64.90625 145.03320312 C-65.54949219 144.38802734 -66.19273437 143.74285156 -66.85546875 143.078125 C-67.43522461 142.49426025 -68.01498047 141.91039551 -68.61230469 141.30883789 C-70.04820742 139.82872163 -70.04820742 139.82872163 -72.12109375 140.04296875 Z M-18.18408203 141.87890625 C-19.01149902 142.71679688 -19.83891602 143.5546875 -20.69140625 144.41796875 C-21.58730469 145.3203125 -22.48320312 146.22265625 -23.40625 147.15234375 C-24.35297274 148.11577915 -25.29958591 149.07932223 -26.24609375 150.04296875 C-27.20006177 151.00696492 -28.15448327 151.97051256 -29.109375 152.93359375 C-31.4511255 155.2989983 -33.78809878 157.66893327 -36.12109375 160.04296875 C-34.63455869 163.5092671 -32.66387024 165.73318911 -29.98828125 168.37109375 C-29.18261719 169.1703125 -28.37695312 169.96953125 -27.546875 170.79296875 C-26.70511719 171.61796875 -25.86335938 172.44296875 -24.99609375 173.29296875 C-23.72185547 174.55367187 -23.72185547 174.55367187 -22.421875 175.83984375 C-20.32604452 177.91212558 -18.22568662 179.97959268 -16.12109375 182.04296875 C-12.6547954 180.55643369 -10.43087339 178.58574524 -7.79296875 175.91015625 C-6.99375 175.10449219 -6.19453125 174.29882812 -5.37109375 173.46875 C-4.54609375 172.62699219 -3.72109375 171.78523438 -2.87109375 170.91796875 C-2.030625 170.06847656 -1.19015625 169.21898437 -0.32421875 168.34375 C1.74806308 166.24791952 3.81553018 164.14756162 5.87890625 162.04296875 C4.39661174 158.60691694 2.44938885 156.35595284 -0.18359375 153.71484375 C-0.98023438 152.915625 -1.776875 152.11640625 -2.59765625 151.29296875 C-3.43039062 150.46796875 -4.263125 149.64296875 -5.12109375 148.79296875 C-5.95382812 147.9525 -6.7865625 147.11203125 -7.64453125 146.24609375 C-8.44117188 145.45203125 -9.2378125 144.65796875 -10.05859375 143.83984375 C-10.78949219 143.11120117 -11.52039063 142.38255859 -12.2734375 141.63183594 C-14.95811627 139.32318247 -15.54947475 139.53426166 -18.18408203 141.87890625 Z M31.12817383 148.36816406 C29.69856785 149.78586677 28.25140901 151.18385455 26.80273438 152.58203125 C25.90619141 153.47148437 25.00964844 154.3609375 24.0859375 155.27734375 C23.25553955 156.09428711 22.4251416 156.91123047 21.56958008 157.75292969 C19.68633744 159.83862726 19.68633744 159.83862726 19.85009766 162.05664062 C21.23115397 164.72305595 22.98760741 166.48725863 25.1328125 168.58984375 C25.98681641 169.43417969 26.84082031 170.27851563 27.72070312 171.1484375 C29.06745117 172.45748047 29.06745117 172.45748047 30.44140625 173.79296875 C31.34310547 174.68113281 32.24480469 175.56929687 33.17382812 176.484375 C35.40227723 178.6774519 37.63742218 180.86322919 39.87890625 183.04296875 C45.13065551 178.65854349 50.01113098 174.03454782 54.81640625 169.16796875 C55.50025391 168.47960937 56.18410156 167.79125 56.88867188 167.08203125 C58.55442089 165.40463364 60.21776845 163.72493084 61.87890625 162.04296875 C57.83924829 157.17975367 53.58658824 152.64756792 49.06640625 148.23046875 C43.0124014 142.30995904 43.0124014 142.30995904 41.87890625 140.04296875 C37.59436363 140.04296875 34.02472647 145.48309181 31.12817383 148.36816406 Z M83.375 152.44921875 C82.35293815 153.47796075 81.33352661 154.50934082 80.31640625 155.54296875 C79.79626953 156.06761719 79.27613281 156.59226563 78.74023438 157.1328125 C77.45088934 158.43398638 76.16461255 159.73819926 74.87890625 161.04296875 C75.80852047 162.19520903 76.74791875 163.33956051 77.69140625 164.48046875 C78.21347656 165.11855469 78.73554688 165.75664062 79.2734375 166.4140625 C80.88725036 168.29779625 80.88725036 168.29779625 83.87890625 169.04296875 C84.38534178 166.81525533 84.88380245 164.58572799 85.37890625 162.35546875 C85.65734375 161.11410156 85.93578125 159.87273437 86.22265625 158.59375 C86.77244751 155.61898657 87.0168633 153.04928273 86.87890625 150.04296875 C85.42029561 149.92748435 85.42029561 149.92748435 83.375 152.44921875 Z M-114.12109375 154.04296875 C-114.65119576 156.64555999 -115.1704717 159.24952575 -115.68359375 161.85546875 C-115.83505859 162.59345703 -115.98652344 163.33144531 -116.14257812 164.09179688 C-117.02921981 168.59746035 -117.02921981 168.59746035 -116.12109375 173.04296875 C-112.49109375 169.41296875 -108.86109375 165.78296875 -105.12109375 162.04296875 C-106.04921875 160.90859375 -106.97734375 159.77421875 -107.93359375 158.60546875 C-108.45566406 157.96738281 -108.97773438 157.32929688 -109.515625 156.671875 C-111.12943786 154.78814125 -111.12943786 154.78814125 -114.12109375 154.04296875 Z M-108.18359375 176.60546875 C-109.03759766 177.40533203 -109.89160156 178.20519531 -110.77148438 179.02929688 C-114.2230378 182.40372061 -116.75567331 184.90214397 -118.2421875 189.54296875 C-116.43246804 195.19282462 -112.3885271 198.50457927 -108.12109375 202.48046875 C-107.26257813 203.30740234 -106.4040625 204.13433594 -105.51953125 204.98632812 C-103.40161587 207.02188013 -101.26914721 209.03932491 -99.12109375 211.04296875 C-93.86934449 206.65854349 -88.98886902 202.03454782 -84.18359375 197.16796875 C-83.49974609 196.47960937 -82.81589844 195.79125 -82.11132812 195.08203125 C-80.44557911 193.40463364 -78.78223155 191.72493084 -77.12109375 190.04296875 C-81.49734587 184.80916178 -86.09654872 179.91419937 -90.93359375 175.10546875 C-91.95356445 174.07969727 -91.95356445 174.07969727 -92.99414062 173.03320312 C-93.64060547 172.38802734 -94.28707031 171.74285156 -94.953125 171.078125 C-95.53811768 170.49426025 -96.12311035 169.91039551 -96.72583008 169.30883789 C-100.36856356 166.00392571 -105.52977779 174.02408446 -108.18359375 176.60546875 Z M-45.16235352 169.97070312 C-46.03690186 170.85048828 -46.9114502 171.73027344 -47.8125 172.63671875 C-48.277202 173.10283569 -48.74190399 173.56895264 -49.22068787 174.04919434 C-50.71067557 175.54479884 -52.1971571 177.0438357 -53.68359375 178.54296875 C-54.6905269 179.55491473 -55.69768541 180.56663652 -56.70507812 181.578125 C-59.1797078 184.06380596 -61.65120344 186.55257749 -64.12109375 189.04296875 C-60.74310613 193.06233737 -57.32843691 196.94352808 -53.55859375 200.60546875 C-50.17944595 203.93895239 -47.07336286 207.32882374 -44.12109375 211.04296875 C-40.5534509 209.52920794 -38.28403088 207.43783746 -35.57421875 204.69140625 C-34.72988281 203.840625 -33.88554687 202.98984375 -33.015625 202.11328125 C-32.14292969 201.22382813 -31.27023437 200.334375 -30.37109375 199.41796875 C-29.48292969 198.52078125 -28.59476562 197.62359375 -27.6796875 196.69921875 C-25.48892406 194.48489871 -23.30296612 192.2660444 -21.12109375 190.04296875 C-25.49734587 184.80916178 -30.09654872 179.91419937 -34.93359375 175.10546875 C-35.95356445 174.07969727 -35.95356445 174.07969727 -36.99414062 173.03320312 C-37.64060547 172.38802734 -38.28707031 171.74285156 -38.953125 171.078125 C-39.53811768 170.49426025 -40.12311035 169.91039551 -40.72583008 169.30883789 C-42.95651559 167.2850226 -42.85206461 167.78890176 -45.16235352 169.97070312 Z M10.13891602 169.54003906 C9.45627686 170.22678711 8.7736377 170.91353516 8.0703125 171.62109375 C6.94979492 172.74451172 6.94979492 172.74451172 5.80664062 173.890625 C5.02611328 174.68339844 4.24558594 175.47617188 3.44140625 176.29296875 C2.66474609 177.07027344 1.88808594 177.84757813 1.08789062 178.6484375 C-2.22173177 181.98371588 -5.37259008 185.22129081 -8.12109375 189.04296875 C-6.63455869 192.5092671 -4.66387024 194.73318911 -1.98828125 197.37109375 C-1.18261719 198.1703125 -0.37695312 198.96953125 0.453125 199.79296875 C1.29488281 200.61796875 2.13664062 201.44296875 3.00390625 202.29296875 C4.27814453 203.55367187 4.27814453 203.55367187 5.578125 204.83984375 C7.67395548 206.91212558 9.77431338 208.97959268 11.87890625 211.04296875 C15.18802329 209.61134215 17.24828789 207.86241058 19.69921875 205.234375 C20.39917969 204.48736328 21.09914063 203.74035156 21.8203125 202.97070312 C22.54089844 202.19017578 23.26148438 201.40964844 24.00390625 200.60546875 C24.73222656 199.82880859 25.46054687 199.05214844 26.2109375 198.25195312 C28.99791422 195.26149104 31.60712669 192.45063809 33.87890625 189.04296875 C33.30857666 188.47787598 32.73824707 187.9127832 32.15063477 187.33056641 C29.5782995 184.7789652 27.00981288 182.22352417 24.44140625 179.66796875 C23.54357422 178.77851563 22.64574219 177.8890625 21.72070312 176.97265625 C20.43969727 175.69648438 20.43969727 175.69648438 19.1328125 174.39453125 C18.34205322 173.60900879 17.55129395 172.82348633 16.73657227 172.01416016 C14.87890625 170.04296875 14.87890625 170.04296875 13.87890625 168.04296875 C11.749022 167.82556567 11.749022 167.82556567 10.13891602 169.54003906 Z M65.83764648 169.97070312 C64.96309814 170.85048828 64.0885498 171.73027344 63.1875 172.63671875 C62.722798 173.10283569 62.25809601 173.56895264 61.77931213 174.04919434 C60.28932443 175.54479884 58.8028429 177.0438357 57.31640625 178.54296875 C56.3094731 179.55491473 55.30231459 180.56663652 54.29492188 181.578125 C51.8202922 184.06380596 49.34879656 186.55257749 46.87890625 189.04296875 C50.80178883 193.74638001 54.88909321 198.18570826 59.25390625 202.48046875 C59.79917969 203.02123047 60.34445312 203.56199219 60.90625 204.11914062 C62.22814089 205.42943598 63.55318243 206.73655159 64.87890625 208.04296875 C69.29448252 204.08147656 71.90725202 199.90967319 74.62890625 194.66796875 C75.02722656 193.93835938 75.42554688 193.20875 75.8359375 192.45703125 C78.15737427 188.05023602 80.0340063 184.13144343 79.87890625 179.04296875 C78.11222495 176.64186066 76.68589696 175.02934592 74.50390625 173.10546875 C73.983125 172.61240234 73.46234375 172.11933594 72.92578125 171.61132812 C69.51336432 167.71838424 69.51336432 167.71838424 65.83764648 169.97070312 Z M-73.16235352 197.97070312 C-74.03690186 198.85048828 -74.9114502 199.73027344 -75.8125 200.63671875 C-76.277202 201.10283569 -76.74190399 201.56895264 -77.22068787 202.04919434 C-78.71067557 203.54479884 -80.1971571 205.0438357 -81.68359375 206.54296875 C-82.6905269 207.55491473 -83.69768541 208.56663652 -84.70507812 209.578125 C-87.1797078 212.06380596 -89.65120344 214.55257749 -92.12109375 217.04296875 C-88.74310613 221.06233737 -85.32843691 224.94352808 -81.55859375 228.60546875 C-78.17944595 231.93895239 -75.07336286 235.32882374 -72.12109375 239.04296875 C-68.6547954 237.55643369 -66.43087339 235.58574524 -63.79296875 232.91015625 C-62.99375 232.10449219 -62.19453125 231.29882812 -61.37109375 230.46875 C-60.54609375 229.62699219 -59.72109375 228.78523438 -58.87109375 227.91796875 C-58.030625 227.06847656 -57.19015625 226.21898437 -56.32421875 225.34375 C-54.25193692 223.24791952 -52.18446982 221.14756162 -50.12109375 219.04296875 C-54.35464961 210.14700939 -62.9499754 202.66985044 -70.12109375 196.04296875 C-71.46786302 195.92853532 -71.46786302 195.92853532 -73.16235352 197.97070312 Z M-16.12109375 196.04296875 C-17.06347486 197.08272924 -17.97295692 198.15225993 -18.87109375 199.23046875 C-24.26572074 205.507236 -30.23317712 211.23473821 -36.12109375 217.04296875 C-34.63455869 220.5092671 -32.66387024 222.73318911 -29.98828125 225.37109375 C-29.18261719 226.1703125 -28.37695312 226.96953125 -27.546875 227.79296875 C-26.70511719 228.61796875 -25.86335938 229.44296875 -24.99609375 230.29296875 C-23.72185547 231.55367187 -23.72185547 231.55367187 -22.421875 232.83984375 C-20.32604452 234.91212558 -18.22568662 236.97959268 -16.12109375 239.04296875 C-12.6547954 237.55643369 -10.43087339 235.58574524 -7.79296875 232.91015625 C-6.99375 232.10449219 -6.19453125 231.29882812 -5.37109375 230.46875 C-4.54609375 229.62699219 -3.72109375 228.78523438 -2.87109375 227.91796875 C-2.030625 227.06847656 -1.19015625 226.21898437 -0.32421875 225.34375 C1.74806308 223.24791952 3.81553018 221.14756162 5.87890625 219.04296875 C4.36685165 215.49007016 2.28841454 213.20763319 -0.4375 210.49609375 C-1.28376953 209.65175781 -2.13003906 208.80742187 -3.00195312 207.9375 C-3.88689453 207.06480469 -4.77183594 206.19210938 -5.68359375 205.29296875 C-6.57240234 204.40480469 -7.46121094 203.51664063 -8.37695312 202.6015625 C-11.80478214 198.44185303 -11.80478214 198.44185303 -16.12109375 196.04296875 Z M38.36010742 197.54003906 C37.72049072 198.22678711 37.08087402 198.91353516 36.421875 199.62109375 C35.72126953 200.37003906 35.02066406 201.11898437 34.29882812 201.890625 C33.56212891 202.68339844 32.82542969 203.47617188 32.06640625 204.29296875 C30.62294649 205.84035761 29.17895245 207.38724827 27.734375 208.93359375 C27.09137451 209.62485352 26.44837402 210.31611328 25.78588867 211.02832031 C23.85247569 213.07089154 21.87655156 215.06334523 19.87890625 217.04296875 C21.30536405 220.30163235 23.04594787 222.44545415 25.57421875 224.93359375 C26.28964844 225.64257812 27.00507813 226.3515625 27.7421875 227.08203125 C28.48855469 227.81164062 29.23492187 228.54125 30.00390625 229.29296875 C30.75800781 230.03804687 31.51210938 230.783125 32.2890625 231.55078125 C34.14791397 233.38610295 36.0112763 235.21658785 37.87890625 237.04296875 C46.37478089 232.9253565 53.05385467 225.33384294 58.87890625 218.04296875 C59.37390625 216.55796875 59.37390625 216.55796875 59.87890625 215.04296875 C56.73708523 211.87229925 53.5897975 208.70711321 50.44140625 205.54296875 C49.54357422 204.63675781 48.64574219 203.73054687 47.72070312 202.796875 C46.86669922 201.93964844 46.01269531 201.08242187 45.1328125 200.19921875 C43.94667358 199.00522461 43.94667358 199.00522461 42.73657227 197.78710938 C40.49600156 195.49492319 40.49600156 195.49492319 38.36010742 197.54003906 Z M-112.12109375 211.04296875 C-111.64164745 215.26209622 -110.95484256 217.83960053 -108.12109375 221.04296875 C-107.13109375 219.72296875 -106.14109375 218.40296875 -105.12109375 217.04296875 C-107.43109375 215.06296875 -109.74109375 213.08296875 -112.12109375 211.04296875 Z M-144.12109375 213.04296875 C-144.3232827 213.93355484 -144.3232827 213.93355484 -144.52955627 214.84213257 C-148.10634968 230.5849748 -151.73748762 246.31454076 -155.41882324 262.03326416 C-156.02885859 264.64767864 -156.63223206 267.26346051 -157.23144531 269.88037109 C-162.59548911 293.20762531 -162.59548911 293.20762531 -172.12109375 302.04296875 C-173.32508724 303.42460062 -174.51472122 304.81900003 -175.68359375 306.23046875 C-176.48796875 307.15859375 -177.29234375 308.08671875 -178.12109375 309.04296875 C-177.31285156 309.75582031 -176.50460938 310.46867187 -175.671875 311.203125 C-170.15979627 316.12290456 -165.05703682 320.71734595 -161.12109375 327.04296875 C-156.44231821 323.18490553 -156.44231821 323.18490553 -152.20166016 318.86694336 C-146.30071231 312.22855346 -140.96308008 310.03620498 -132.43359375 308.04296875 C-131.20133057 307.72884033 -129.96906738 307.41471191 -128.69946289 307.09106445 C-125.27031476 306.22069904 -121.83192506 305.39474945 -118.38903809 304.58062744 C-116.00815093 304.01619354 -113.62941011 303.44333382 -111.25097656 302.86865234 C-102.29728605 300.70754966 -93.33436987 298.58970465 -84.36207581 296.5072937 C-78.26441882 295.08743507 -72.18746228 293.59130739 -66.12109375 292.04296875 C-80.49310005 284.83626802 -89.71576554 282.96219996 -105.26171875 287.9765625 C-107.21817863 288.65583439 -109.17132487 289.34472317 -111.12109375 290.04296875 C-112.10271484 290.38859863 -113.08433594 290.73422852 -114.09570312 291.09033203 C-124.96348224 294.94366117 -124.96348224 294.94366117 -135.42578125 299.75390625 C-139.38473772 301.64732021 -142.82471719 301.77881225 -147.12109375 301.04296875 C-149.99139244 299.24903207 -151.61241013 298.06033599 -153.12109375 295.04296875 C-153.63988962 288.51182617 -152.32243476 284.33271653 -149.55859375 278.48046875 C-146.2800644 271.13209162 -143.57903352 263.74424608 -141.24609375 256.04296875 C-140.81768188 254.64776001 -140.81768188 254.64776001 -140.38061523 253.22436523 C-136.09817057 240.26535868 -136.09817057 240.26535868 -138.37109375 227.35546875 C-140.46609341 222.57179105 -142.02154806 218.14086238 -143.12109375 213.04296875 C-143.45109375 213.04296875 -143.78109375 213.04296875 -144.12109375 213.04296875 Z M-99.12109375 224.04296875 C-100.81197597 226.02253817 -102.47939847 228.02242071 -104.12109375 230.04296875 C-94.66133069 242.30264177 -94.66133069 242.30264177 -82.12109375 251.04296875 C-80.80109375 249.72296875 -79.48109375 248.40296875 -78.12109375 247.04296875 C-82.00405716 238.1589111 -91.09348808 230.53722934 -98.12109375 224.04296875 C-98.45109375 224.04296875 -98.78109375 224.04296875 -99.12109375 224.04296875 Z M-46.18408203 226.87890625 C-47.01149902 227.71679688 -47.83891602 228.5546875 -48.69140625 229.41796875 C-49.58730469 230.3203125 -50.48320312 231.22265625 -51.40625 232.15234375 C-52.35297274 233.11577915 -53.29958591 234.07932223 -54.24609375 235.04296875 C-55.20006177 236.00696492 -56.15448327 236.97051256 -57.109375 237.93359375 C-59.4511255 240.2989983 -61.78809878 242.66893327 -64.12109375 245.04296875 C-61.97081497 249.81910036 -58.56996334 253.03788476 -54.93359375 256.73046875 C-54.28583984 257.41947266 -53.63808594 258.10847656 -52.97070312 258.81835938 C-50.01768717 261.81857638 -47.59292432 263.83254316 -43.72265625 265.55859375 C-37.73947978 264.70200016 -34.65528694 260.41000327 -30.68359375 256.10546875 C-29.85666016 255.24244141 -29.02972656 254.37941406 -28.17773438 253.49023438 C-26.13972498 251.35798177 -24.12264512 249.20938733 -22.12109375 247.04296875 C-23.60338826 243.60691694 -25.55061115 241.35595284 -28.18359375 238.71484375 C-28.98023438 237.915625 -29.776875 237.11640625 -30.59765625 236.29296875 C-31.43039062 235.46796875 -32.263125 234.64296875 -33.12109375 233.79296875 C-33.95382812 232.9525 -34.7865625 232.11203125 -35.64453125 231.24609375 C-36.44117188 230.45203125 -37.2378125 229.65796875 -38.05859375 228.83984375 C-38.78949219 228.11120117 -39.52039063 227.38255859 -40.2734375 226.63183594 C-42.95811627 224.32318247 -43.54947475 224.53426166 -46.18408203 226.87890625 Z M9.81591797 226.87890625 C8.98850098 227.71679688 8.16108398 228.5546875 7.30859375 229.41796875 C6.41269531 230.3203125 5.51679688 231.22265625 4.59375 232.15234375 C3.64702726 233.11577915 2.70041409 234.07932223 1.75390625 235.04296875 C0.79993823 236.00696492 -0.15448327 236.97051256 -1.109375 237.93359375 C-3.4511255 240.2989983 -5.78809878 242.66893327 -8.12109375 245.04296875 C-6.56112741 248.30428939 -4.8632112 250.71363106 -2.37109375 253.35546875 C-1.71625 254.07347656 -1.06140625 254.79148437 -0.38671875 255.53125 C1.80899262 257.30494727 1.80899262 257.30494727 4.6484375 257.0078125 C8.61854272 255.82206161 12.13997571 254.18509572 15.81640625 252.29296875 C16.49380859 251.9578125 17.17121094 251.62265625 17.86914062 251.27734375 C22.53931746 248.91315068 26.68313048 246.17202186 30.87890625 243.04296875 C27.16135823 238.52162657 23.23843261 234.26881114 19.12890625 230.10546875 C18.64510498 229.60877686 18.16130371 229.11208496 17.6628418 228.6003418 C16.44042261 227.37449546 15.16338882 226.20362048 13.87890625 225.04296875 C11.66764131 224.82136785 11.66764131 224.82136785 9.81591797 226.87890625 Z M-130.12109375 247.04296875 C-130.29125 247.64020752 -130.46140625 248.23744629 -130.63671875 248.8527832 C-134.00694456 260.57126449 -137.59910282 271.9775777 -142.63085938 283.10083008 C-142.95634766 283.82810303 -143.28183594 284.55537598 -143.6171875 285.3046875 C-143.90779053 285.93334717 -144.19839355 286.56200684 -144.49780273 287.2097168 C-145.33569105 289.35143344 -145.33569105 289.35143344 -145.12109375 293.04296875 C-139.61486095 292.43214871 -135.04300504 290.49335536 -129.99609375 288.35546875 C-119.89904145 284.18207087 -109.63130573 280.99477297 -99.12109375 278.04296875 C-99.82878906 277.49125 -100.53648437 276.93953125 -101.265625 276.37109375 C-105.24655329 273.12535741 -108.9473025 269.59948234 -112.6953125 266.08984375 C-114.84685557 263.82800428 -114.84685557 263.82800428 -117.12109375 264.04296875 C-117.51167969 263.17478516 -117.51167969 263.17478516 -117.91015625 262.2890625 C-119.203017 259.89101433 -120.6683445 258.12078178 -122.49609375 256.10546875 C-125.15036829 253.16471965 -127.66587817 250.15254795 -130.12109375 247.04296875 Z M-72.12109375 253.04296875 C-73.11109375 254.52796875 -73.11109375 254.52796875 -74.12109375 256.04296875 C-72.83458669 256.74007606 -71.5416871 257.42539751 -70.24609375 258.10546875 C-69.52679688 258.48832031 -68.8075 258.87117188 -68.06640625 259.265625 C-67.10347656 259.65041016 -67.10347656 259.65041016 -66.12109375 260.04296875 C-65.46109375 259.71296875 -64.80109375 259.38296875 -64.12109375 259.04296875 C-65.07316585 258.03700578 -66.03296721 257.03835312 -66.99609375 256.04296875 C-67.79660156 255.20765625 -67.79660156 255.20765625 -68.61328125 254.35546875 C-70.03934363 252.82411353 -70.03934363 252.82411353 -72.12109375 253.04296875 Z M-16.12109375 253.04296875 C-17.79073896 254.68578037 -19.45674015 256.33229636 -21.12109375 257.98046875 C-22.04921875 258.89699219 -22.97734375 259.81351562 -23.93359375 260.7578125 C-26.23634424 262.63613113 -26.23634424 262.63613113 -26.12109375 264.04296875 C-19.57019525 263.58536922 -13.44570955 262.83295435 -7.12109375 261.04296875 C-8.05070797 259.89072847 -8.99010625 258.74637699 -9.93359375 257.60546875 C-10.45566406 256.96738281 -10.97773438 256.32929688 -11.515625 255.671875 C-13.12943786 253.78814125 -13.12943786 253.78814125 -16.12109375 253.04296875 Z M-191.97142029 315.09327698 C-192.55633743 315.65618942 -193.14125458 316.21910187 -193.74389648 316.79907227 C-194.43353485 317.45150909 -195.12317322 318.10394592 -195.83370972 318.77615356 C-196.58854645 319.52420258 -197.34338318 320.27225159 -198.12109375 321.04296875 C-198.94964874 321.84749481 -199.77820374 322.65202087 -200.63186646 323.48092651 C-203.493673 326.28259785 -206.32765861 329.11021363 -209.15625 331.9453125 C-210.20407321 332.99246011 -211.25204465 334.03945941 -212.30015564 335.08631897 C-214.48436363 337.26906201 -216.66677707 339.453579 -218.84790039 341.6394043 C-221.62363256 344.42083299 -224.40383157 347.19774651 -227.18540287 349.97333431 C-229.34668578 352.13097896 -231.50555089 354.29103022 -233.6637249 356.45178413 C-234.68710696 357.47582645 -235.71121336 358.49914549 -236.73610115 359.52168083 C-244.27338565 367.045452 -251.34551909 374.83015098 -258.12109375 383.04296875 C-257.55261719 383.59984375 -256.98414063 384.15671875 -256.3984375 384.73046875 C-252.04512269 389.0329101 -247.87691894 393.40075602 -243.89453125 398.046875 C-240.79580586 401.53464741 -237.45764738 404.78441248 -234.12109375 408.04296875 C-228.49226076 403.35726469 -223.28530388 398.35817323 -218.12109375 393.16796875 C-217.3528125 392.40355469 -216.58453125 391.63914062 -215.79296875 390.8515625 C-215.035 390.09230469 -214.27703125 389.33304687 -213.49609375 388.55078125 C-212.82320312 387.8767627 -212.1503125 387.20274414 -211.45703125 386.50830078 C-209.5286293 384.47307891 -207.69498294 382.40332269 -205.86669922 380.27978516 C-202.04881406 375.89072887 -197.96948499 371.81584718 -193.81640625 367.74609375 C-192.24841651 366.19559703 -190.6807164 364.64480737 -189.11328125 363.09375 C-186.66726107 360.67883585 -184.21897411 358.26635627 -181.765625 355.85888672 C-179.38001521 353.51547074 -177.00384095 351.16282093 -174.62890625 348.80859375 C-173.89044464 348.08875305 -173.15198303 347.36891235 -172.3911438 346.6272583 C-171.71308685 345.95265564 -171.03502991 345.27805298 -170.33642578 344.58300781 C-169.73798859 343.99424866 -169.13955139 343.4054895 -168.52297974 342.79888916 C-166.95896289 340.83989311 -166.43618933 339.51791983 -166.12109375 337.04296875 C-169.69002398 327.02063042 -175.97330255 320.28638682 -185.12109375 315.04296875 C-188.6409545 313.88808524 -188.6409545 313.88808524 -191.97142029 315.09327698 Z M-269.12109375 386.04296875 C-270.77109375 388.02296875 -272.42109375 390.00296875 -274.12109375 392.04296875 C-264.22109375 401.94296875 -254.32109375 411.84296875 -244.12109375 422.04296875 C-239.88530583 419.93905934 -239.88530583 419.93905934 -238.12109375 416.04296875 C-238.90613281 415.26953125 -239.69117188 414.49609375 -240.5 413.69921875 C-250.04872899 404.24789471 -250.04872899 404.24789471 -253.74609375 399.91796875 C-257.91403712 395.03993132 -262.33177007 390.3157109 -267.12109375 386.04296875 C-267.78109375 386.04296875 -268.44109375 386.04296875 -269.12109375 386.04296875 Z " fill="#000000" transform="translate(340.12109375,46.95703125)"/>
</svg>
