<?xml version="1.0" encoding="UTF-8"?>
<svg version="1.1" xmlns="http://www.w3.org/2000/svg" width="512" height="512">
<path d="M0 0 C0 138.93 0 277.86 0 421 C-8.84591556 421 -16.76349938 420.7625342 -25.375 419.375 C-26.49567871 419.19678711 -27.61635742 419.01857422 -28.77099609 418.83496094 C-68.19399373 412.26538767 -116.43784078 399.14256103 -141.0625 365.4375 C-150.30444859 352.38846829 -156.44790365 337.8707418 -160.1875 322.375 C-160.35475586 321.68220947 -160.52201172 320.98941895 -160.69433594 320.27563477 C-168.19864629 287.56225712 -162.39687804 249.16964826 -146 220 C-145.64389648 219.35933594 -145.28779297 218.71867188 -144.92089844 218.05859375 C-140.028074 209.33870862 -134.48881004 201.37613826 -128.24853516 193.57519531 C-126.20673002 190.99918305 -124.23566653 188.36938989 -122.25 185.75 C-118.30416977 180.58964322 -114.20531658 175.56555828 -110.0625 170.5625 C-103.91459802 163.13688635 -97.87781017 155.64136143 -92 148 C-91.51289551 147.36739258 -91.02579102 146.73478516 -90.52392578 146.08300781 C-60.76412689 107.28915497 -39.98449122 66.01730058 -38.4375 16.4375 C-38.37272461 14.49520508 -38.37272461 14.49520508 -38.30664062 12.51367188 C-38.20132615 9.34253616 -38.09919383 6.17133207 -38 3 C-34.48148772 2.48274705 -30.95994977 1.98965801 -27.4375 1.5 C-26.46619141 1.35691406 -25.49488281 1.21382813 -24.49414062 1.06640625 C-16.10768551 -0.08092637 -8.6796781 0 0 0 Z " fill="#000000" transform="translate(245,91)"/>
<path d="M0 0 C9.54385816 0 18.14011731 0.13037893 27.4375 1.5 C28.98147461 1.71462891 28.98147461 1.71462891 30.55664062 1.93359375 C33.03919705 2.27999697 35.52005908 2.63542638 38 3 C38.01458252 3.7434668 38.02916504 4.48693359 38.04418945 5.25292969 C39.48550091 71.35972363 67.76302858 119.14196405 108.95996094 168.89038086 C114.43022507 175.50092324 119.78584981 182.18548419 125 189 C125.55187988 189.71913574 126.10375977 190.43827148 126.67236328 191.17919922 C154.23578392 227.27868332 166.04312595 264.7281199 161.68359375 310.30810547 C160.88809451 315.99341496 159.62825565 321.49844929 158 327 C157.63777344 328.2375 157.27554688 329.475 156.90234375 330.75 C148.80122726 355.35542499 132.67331674 380.12095205 109.25488281 392.44458008 C106.33930174 393.81785005 103.40279083 395.112692 100.4375 396.375 C99.35251221 396.84196289 98.26752441 397.30892578 97.1496582 397.79003906 C73.11590478 407.99237693 48.46366954 416.10152819 22.5625 419.9375 C21.7777832 420.05399902 20.99306641 420.17049805 20.18457031 420.29052734 C13.33640746 421.17954128 7.06055359 421 0 421 C0 282.07 0 143.14 0 0 Z " fill="#000000" transform="translate(267,91)"/>
<path d="M0 0 C6.96897933 13.93795865 -2.74478058 42.87636545 -7.2734375 57.01171875 C-17.54030439 87.53403642 -36.96461031 113.31730509 -57.11108398 137.98681641 C-61.10176211 142.87596854 -65.02654225 147.81157883 -68.90820312 152.78759766 C-71.22229066 155.7505339 -73.55503036 158.6946673 -75.9296875 161.609375 C-86.88022314 175.06472524 -96.91978163 188.8582796 -105.05224609 204.21435547 C-105.90994346 205.83032624 -106.79150932 207.43357282 -107.67578125 209.03515625 C-115.95827938 224.59426772 -119.75402132 241.807014 -123 259 C-123.13422363 259.68674805 -123.26844727 260.37349609 -123.40673828 261.08105469 C-125.24521306 270.87073893 -125.20012726 280.76326332 -125.25 290.6875 C-125.25942627 291.99460937 -125.26885254 293.30171875 -125.27856445 294.6484375 C-125.25406888 301.96198338 -124.75007622 308.91138183 -123.42871094 316.10864258 C-122.98317274 319.11348821 -122.92904937 321.96686066 -123 325 C-126.67889443 321.44637258 -129.97697601 317.72294061 -133.125 313.6875 C-133.59800537 313.08139893 -134.07101074 312.47529785 -134.55834961 311.85083008 C-157.75118688 281.80251371 -174.71764012 248.64954027 -181 211 C-181.19335938 209.94296875 -181.38671875 208.8859375 -181.5859375 207.796875 C-183.3818312 191.32886864 -182.96762485 174.10787866 -179 158 C-178.85014648 157.3596582 -178.70029297 156.71931641 -178.54589844 156.05957031 C-171.01597207 124.00542516 -153.61502613 96.47029976 -131 73 C-130.12335693 72.08250977 -130.12335693 72.08250977 -129.22900391 71.14648438 C-120.70803379 62.26489827 -111.90071053 54.30551573 -102 47 C-100.89314098 46.16287701 -99.78636963 45.32563808 -98.6796875 44.48828125 C-89.96740506 37.99410982 -80.72287131 32.54070941 -71.23974609 27.25341797 C-69.26004057 26.14552521 -67.29485161 25.01630756 -65.33203125 23.87890625 C-47.74337175 14.00143306 -20.61741253 0 0 0 Z " fill="#000000" transform="translate(185,99)"/>
<path d="M0 0 C45.79536041 7.37569507 91.04030036 34.24137416 124 66 C124.91749023 66.87664307 124.91749023 66.87664307 125.85351562 67.77099609 C134.71766057 76.27523321 142.81713609 85.0253267 150 95 C150.64727051 95.8967041 150.64727051 95.8967041 151.30761719 96.81152344 C157.5157756 105.51961141 162.61833571 114.54577308 167.16113281 124.22070312 C167.89913032 125.78604824 168.6624589 127.33939777 169.4296875 128.890625 C186.76994907 164.86359 185.63256092 206.83874456 173 244 C162.57291062 272.91779455 145.34149486 303.57183669 123 325 C123.1440088 323.33317469 123.29031844 321.66654815 123.4375 320 C123.55931641 318.6078125 123.55931641 318.6078125 123.68359375 317.1875 C123.90409893 314.96611444 124.18778057 312.7504827 124.51953125 310.54296875 C126.84135271 292.13844599 125.70302703 272.10923283 122 254 C121.80132324 253.01338379 121.60264648 252.02676758 121.39794922 251.01025391 C115.5543138 222.79884546 104.35218426 198.93264672 87 176 C86.21109375 174.948125 85.4221875 173.89625 84.609375 172.8125 C76.95680589 162.69751663 68.87744084 152.91241441 60.80859375 143.12890625 C27.15864837 102.2113997 1.16838749 61.04736146 -0.94921875 6.76953125 C-0.98362061 5.89917236 -1.01802246 5.02881348 -1.0534668 4.13208008 C-1 2 -1 2 0 0 Z " fill="#000000" transform="translate(327,99)"/>
<path d="M0 0 C0.82628906 -0.04125 1.65257812 -0.0825 2.50390625 -0.125 C13.49836572 -0.125 23.7628622 12.40526017 31.296875 19.484375 C33.50616012 21.54041491 35.74998383 23.50100272 38.0625 25.4375 C68.75322333 52.19676703 90.97227053 92.70390042 103 131 C103.24476074 131.77134277 103.48952148 132.54268555 103.74169922 133.33740234 C106.40025671 141.79057399 108.72804228 150.21020262 110 159 C109.34 159 108.68 159 108 159 C107.32517578 157.7625 107.32517578 157.7625 106.63671875 156.5 C98.51897525 141.83298239 89.07051351 128.572192 78 116 C77.11441406 114.948125 77.11441406 114.948125 76.2109375 113.875 C67.48024242 103.55299597 57.6590119 94.29366937 47 86 C46.0409375 85.22398437 45.081875 84.44796875 44.09375 83.6484375 C11.8637444 58.01093305 -27.0732801 40.50948486 -67 31 C-64.65558808 21.6223523 -57.59584606 14.6007346 -50 9 C-35.02096026 0.0773004 -16.92603137 -0.29924475 0 0 Z " fill="#000000" transform="translate(398,47)"/>
<path d="M0 0 C19.33721186 -0.39598386 39.47733347 2.18750201 54.12109375 15.9296875 C57.81710437 19.82061958 62.80859375 25.47698264 62.80859375 31.1171875 C62.16124268 31.28734375 61.5138916 31.4575 60.84692383 31.6328125 C24.68663123 41.22369162 -8.52263664 55.58953807 -39.19140625 77.1171875 C-39.87976563 77.59913574 -40.568125 78.08108398 -41.27734375 78.57763672 C-52.0994924 86.23036779 -61.71441424 94.87069544 -71.19140625 104.1171875 C-72.16101326 105.04733918 -73.13102092 105.97707352 -74.1015625 106.90625 C-88.14363359 120.57936404 -99.57156598 136.84058064 -109.07006836 153.93603516 C-110.05960129 155.69275277 -111.11876968 157.40994323 -112.19140625 159.1171875 C-112.85140625 159.1171875 -113.51140625 159.1171875 -114.19140625 159.1171875 C-107.14573174 124.42760183 -94.06384213 90.91764104 -73.19140625 62.1171875 C-72.45535156 61.08980469 -71.71929687 60.06242187 -70.9609375 59.00390625 C-59.71332972 43.65540076 -46.96323862 28.18819977 -32.19140625 16.1171875 C-30.70100925 14.85515779 -29.21062385 13.59311435 -27.72045898 12.33081055 C-26.15887741 11.01739564 -24.58627289 9.71884198 -23.0078125 8.42578125 C-21.39534618 7.10405089 -19.79226642 5.77021248 -18.21875 4.40234375 C-12.57655028 -0.19945035 -6.91286247 0.25383828 0 0 Z " fill="#000000" transform="translate(118.19140625,46.8828125)"/>
<path d="M0 0 C9.27219009 0 17.64715312 0.17083614 26.6875 1.5625 C27.83814941 1.73813477 28.98879883 1.91376953 30.17431641 2.09472656 C55.65250877 6.21248412 80.24191546 13.76035789 103 26 C103 26.33 103 26.66 103 27 C101.96101563 27.24234375 100.92203125 27.4846875 99.8515625 27.734375 C79.13867407 32.66565967 62.01960248 40.27703843 50.01953125 58.65625 C47.23631633 63.26443564 44.99242891 68.00390943 43 73 C41.23462891 72.81824219 41.23462891 72.81824219 39.43359375 72.6328125 C26.29506768 71.29738765 13.16011418 70.14435776 0 69 C0 46.23 0 23.46 0 0 Z " fill="#9b9393ff" transform="translate(267,0)"/>
<path d="M0 0 C0 22.77 0 45.54 0 69 C-31 72 -31 72 -43 73 C-43.47308594 71.97261719 -43.94617188 70.94523437 -44.43359375 69.88671875 C-52.90165908 51.94770519 -64.25996701 39.56334266 -83 32 C-89.53946469 29.86026711 -96.24598902 28.29441197 -103 27 C-100.788896 24.54219716 -98.77297777 23.25426356 -95.74609375 21.94921875 C-94.90103271 21.58344727 -94.05597168 21.21767578 -93.18530273 20.84082031 C-91.82514038 20.26992676 -91.82514038 20.26992676 -90.4375 19.6875 C-89.49656494 19.29014648 -88.55562988 18.89279297 -87.58618164 18.48339844 C-68.04155378 10.35146366 -48.0442928 4.90362997 -27.125 1.6875 C-26.0326001 1.51589355 -24.9402002 1.34428711 -23.81469727 1.16748047 C-15.65241798 -0.01058046 -8.43002124 0 0 0 Z " fill="#000000" transform="translate(245,0)"/>
</svg>
