<?xml version="1.0" encoding="UTF-8"?>
<svg version="1.1" xmlns="http://www.w3.org/2000/svg" width="170" height="170">
<path d="M0 0 C1.06992188 0.474375 2.13984375 0.94875 3.2421875 1.4375 C19.75466286 9.51889971 30.60523995 22.82755446 37 40 C41.30117326 53.9146728 41.09524021 71.68480263 35 85 C34.525625 86.06992188 34.05125 87.13984375 33.5625 88.2421875 C25.53996296 104.63439059 12.16715507 115.82260053 -5 122 C-22.41824347 127.05634913 -41.59366026 125.04005104 -57.41772461 116.46020508 C-72.02014702 108.00656716 -82.81777042 94.34937391 -87.56640625 78.05664062 C-90.97339487 64.41651832 -90.81646006 47.86199352 -85 35 C-84.2884375 33.39318359 -84.2884375 33.39318359 -83.5625 31.75390625 C-75.4732498 15.24483552 -62.17486912 4.39566256 -45 -2 C-31.0853272 -6.30117326 -13.31519737 -6.09524021 0 0 Z M-32 2 C-31.60820557 2.83370117 -31.21641113 3.66740234 -30.81274414 4.52636719 C-26.85476379 13.28946816 -24.38193328 21.8014946 -22.4375 31.25 C-19.10927223 48.33733104 -19.10927223 48.33733104 -7.96484375 60.94140625 C-5.97053452 62.01587504 -4.1954455 62.49261196 -2 63 C0.9207852 51.56460437 2.38796068 40.63668926 2.375 28.8125 C2.37628906 27.67965576 2.37757812 26.54681152 2.37890625 25.37963867 C2.36838316 15.9925851 2.36838316 15.9925851 0 7 C-2.1181318 5.13660996 -2.1181318 5.13660996 -4.8125 4.5 C-5.66457031 4.2215625 -6.51664063 3.943125 -7.39453125 3.65625 C-8.68423828 3.33140625 -8.68423828 3.33140625 -10 3 C-10.75023438 2.80535156 -11.50046875 2.61070312 -12.2734375 2.41015625 C-16.12776483 1.83035056 -19.92150416 1.89510021 -23.8125 1.9375 C-24.60076172 1.94201172 -25.38902344 1.94652344 -26.20117188 1.95117188 C-28.13414761 1.96288688 -30.06708393 1.98082002 -32 2 Z M-42.43359375 3.75 C-53.60416523 8.39835224 -66.70274256 14.36631022 -72 26 C-56.44995127 47.6395783 -34.13834514 66.60104838 -10 78 C-9.34 78 -8.68 78 -8 78 C-5.70954986 73.18790099 -5.70954986 73.18790099 -5 68 C-5.65226562 67.731875 -6.30453125 67.46375 -6.9765625 67.1875 C-14.44644024 63.83817429 -18.75159168 60.18957522 -22.0324707 52.61694336 C-24.63291311 45.57150462 -26.29699903 38.53247627 -27.8125 31.1875 C-29.94121038 21.4022319 -32.34106061 12.38631482 -38 4 C-40.02346781 2.70043193 -40.02346781 2.70043193 -42.43359375 3.75 Z M7 12 C7.01571045 12.8343457 7.0314209 13.66869141 7.04760742 14.52832031 C7.31531586 30.95228922 7.2331277 46.81511671 4 63 C13.22865198 61.17307077 19.81613093 58.3639578 25.80859375 50.8203125 C28.37512323 46.89899204 29 43.3043259 29 38.6875 C26.18669971 28.31345517 17.9690208 17.88473727 9 12 C8.34 12 7.68 12 7 12 Z M-76 32 C-76.80229137 33.49434423 -77.59121867 34.99586472 -78.375 36.5 C-78.81585938 37.3353125 -79.25671875 38.170625 -79.7109375 39.03125 C-83.67527427 48.1612377 -84.80399495 59.18358069 -83 69 C-80.9461927 72.41557083 -78.61484582 73.50806526 -75 75 C-74.24074219 75.43957031 -73.48148438 75.87914062 -72.69921875 76.33203125 C-61.4556527 82.71749347 -48.63730572 83.56162434 -36.02124023 84.82275391 C-30.31086732 85.43106471 -25.26173813 86.32039367 -19.92871094 88.49414062 C-17.55904463 89.11565311 -16.25955194 88.91926245 -14 88 C-12.70339566 85.50965614 -12.70339566 85.50965614 -12 83 C-12.99257812 82.46632812 -13.98515625 81.93265625 -15.0078125 81.3828125 C-24.51355678 76.19936042 -33.3830059 70.55160833 -42 64 C-43.34578125 62.99259766 -43.34578125 62.99259766 -44.71875 61.96484375 C-54.94046272 53.97528215 -64.73008643 44.52424514 -72.9453125 34.48046875 C-73.62335938 33.66191406 -74.30140625 32.84335937 -75 32 C-75.33 32 -75.66 32 -76 32 Z M32 51 C31.46375 51.86625 30.9275 52.7325 30.375 53.625 C25.94983332 60.34998449 19.62165765 64.5709839 12 67 C10.25103943 67.17724191 8.50097376 67.34389536 6.75 67.5 C4.21082946 67.77715481 4.21082946 67.77715481 2 69 C-0.37099925 72.79572525 -1.75534961 76.71578233 -3 81 C6.24101503 84.94947945 15.0952722 88.09588707 25 90 C25.96875839 88.17215398 26.92446873 86.33739059 27.875 84.5 C28.40867187 83.4790625 28.94234375 82.458125 29.4921875 81.40625 C32.70483357 74.14866614 33.28114872 67.81944761 33.125 60 C33.11597656 59.12988281 33.10695312 58.25976562 33.09765625 57.36328125 C33.07434619 55.2420658 33.03848579 53.12099438 33 51 C32.67 51 32.34 51 32 51 Z M-80 79 C-76.41085739 92.63874192 -66.30050568 103.52956658 -54.48046875 110.625 C-53.66191406 111.07875 -52.84335937 111.5325 -52 112 C-51.03513672 112.61875 -51.03513672 112.61875 -50.05078125 113.25 C-47.00218163 114.36491643 -45.10837805 113.86493998 -42 113 C-33.58030395 108.2672223 -26.5025398 102.10742722 -20 95 C-25.92045341 89.07954659 -38.35871952 89.38480858 -46.3125 88.625 C-58.59897899 87.30491233 -68.95967185 84.69396234 -80 79 Z M-6 86 C-7.32 88.31 -8.64 90.62 -10 93 C-9.44570312 93.45890625 -8.89140625 93.9178125 -8.3203125 94.390625 C-7.59585938 95.00421875 -6.87140625 95.6178125 -6.125 96.25 C-5.40570313 96.85328125 -4.68640625 97.4565625 -3.9453125 98.078125 C0.24503306 102.21798447 0.43671564 106.36715637 1 112 C8.59704694 108.84650882 14.36682542 103.93017851 20 98 C20.33 97.01 20.66 96.02 21 95 C20.46632813 94.83395264 19.93265625 94.66790527 19.3828125 94.49682617 C16.92113123 93.72941407 14.46056681 92.9584776 12 92.1875 C11.16082031 91.92646484 10.32164063 91.66542969 9.45703125 91.39648438 C4.23438863 89.75681751 -0.89207138 87.96868082 -6 86 Z M-17.3125 100.16015625 C-18.199375 101.11792969 -19.08625 102.07570313 -20 103.0625 C-25.09460994 108.41300753 -30.55368922 112.34667494 -37 116 C-34.58858009 118.41141991 -34.00504519 118.25605507 -30.7109375 118.265625 C-29.85113281 118.26820312 -28.99132812 118.27078125 -28.10546875 118.2734375 C-27.20441406 118.26570313 -26.30335937 118.25796875 -25.375 118.25 C-24.49714844 118.25773437 -23.61929688 118.26546875 -22.71484375 118.2734375 C-17.14856699 118.25689582 -12.31619126 117.68767977 -7 116 C-5.1023374 113.7860603 -5.02032231 112.0993535 -4.4375 109.25 C-5.27960732 104.38449101 -8.26555366 101.15068921 -12 98 C-15.16202934 97.65868697 -15.16202934 97.65868697 -17.3125 100.16015625 Z " fill="#FF7700" transform="translate(89,4)"/>
</svg>
